<svg width="382" height="257" viewBox="0 0 382 257" fill="none" xmlns="http://www.w3.org/2000/svg">
<rect x="1.16406" y="0.5" width="1.39416" height="170.707" stroke="#E2E4E9" stroke-dasharray="2 2"/>
<rect x="49.0459" y="22.5669" width="1.39416" height="148.641" stroke="#E2E4E9" stroke-dasharray="2 2"/>
<rect x="-0.5" y="0.5" width="1.39416" height="115.54" transform="matrix(-1 0 0 1 97.8242 55.1675)" stroke="#E2E4E9" stroke-dasharray="2 2"/>
<rect x="283.676" y="0.5" width="1.39416" height="170.707" stroke="#E2E4E9" stroke-dasharray="2 2"/>
<rect x="331.558" y="22.5669" width="1.39416" height="148.641" stroke="#E2E4E9" stroke-dasharray="2 2"/>
<rect x="-0.5" y="0.5" width="1.39416" height="115.54" transform="matrix(-1 0 0 1 380.336 55.1675)" stroke="#E2E4E9" stroke-dasharray="2 2"/>
<rect x="-0.5" y="0.5" width="1.39416" height="170.707" transform="matrix(-1 0 0 1 241.473 0)" stroke="#E2E4E9" stroke-dasharray="2 2"/>
<rect x="-0.5" y="0.5" width="1.39416" height="148.641" transform="matrix(-1 0 0 1 193.591 22.0669)" stroke="#E2E4E9" stroke-dasharray="2 2"/>
<rect x="144.812" y="55.6675" width="1.39416" height="115.54" stroke="#E2E4E9" stroke-dasharray="2 2"/>
<rect x="1.16406" y="116.094" width="1.39416" height="140.406" fill="#E2E4E9" stroke="#E2E4E9"/>
<rect x="49.0459" y="101.504" width="1.39416" height="154.996" fill="#E2E4E9" stroke="#E2E4E9"/>
<rect x="-0.5" y="0.5" width="1.39416" height="167.341" transform="matrix(-1 0 0 1 97.8242 88.6592)" fill="#E2E4E9" stroke="#E2E4E9"/>
<rect x="283.676" y="88.0371" width="1.39416" height="168.463" fill="#E2E4E9" stroke="#E2E4E9"/>
<rect x="331.558" y="97.0151" width="1.39416" height="159.485" fill="#E2E4E9" stroke="#E2E4E9"/>
<rect x="-0.5" y="0.5" width="1.39416" height="149.384" transform="matrix(-1 0 0 1 380.336 106.616)" fill="#E2E4E9" stroke="#E2E4E9"/>
<rect x="-0.5" y="0.5" width="1.39416" height="159.485" transform="matrix(-1 0 0 1 241.473 96.5151)" fill="#E2E4E9" stroke="#E2E4E9"/>
<rect x="-0.5" y="0.5" width="1.39416" height="149.384" transform="matrix(-1 0 0 1 193.591 106.616)" fill="#E2E4E9" stroke="#E2E4E9"/>
<rect x="144.812" y="99.2598" width="1.39416" height="157.24" fill="#E2E4E9" stroke="#E2E4E9"/>
</svg>
