<svg width="275" height="272" viewBox="0 0 275 272" fill="none" xmlns="http://www.w3.org/2000/svg">
<path fill-rule="evenodd" clip-rule="evenodd" d="M73.3562 9.65826L40.9063 40.46L10.0638 71.4787C3.6143 77.965 0 86.6983 0 95.7959V237.32C0 256.473 15.698 272 35.0625 272H239.938C259.302 272 275 256.473 275 237.32V34.68C275 15.5268 259.302 0 239.938 0H97.6338C88.5844 0 79.8854 3.46068 73.3562 9.65826Z" fill="black"/>
<path fill-rule="evenodd" clip-rule="evenodd" d="M79.1507 17.8765L47.9329 47.5116L18.2627 77.3543C12.9675 82.6804 10 89.8514 10 97.3216V233.713C10 249.44 22.8886 262.189 38.7875 262.189H236.213C252.111 262.189 265 249.44 265 233.713V38.4222C265 22.6952 252.111 9.94595 236.213 9.94595H99.0835C91.6536 9.94595 84.5114 12.7876 79.1507 17.8765ZM75.6887 14.308L44.4188 43.9926L14.6979 73.8863C8.48287 80.1374 5 88.554 5 97.3216V233.713C5 252.171 20.1272 267.135 38.7875 267.135H236.213C254.873 267.135 270 252.171 270 233.713V38.4222C270 19.9636 254.873 5 236.213 5H99.0835C90.3631 5 81.9805 8.33517 75.6887 14.308Z" fill="#E2E4E9"/>
<path fill-rule="evenodd" clip-rule="evenodd" d="M78.1295 106.182L60.7948 129.203L39.5303 129.227H18.2417V136.909V144.59H39.5303L60.7948 144.614L78.1295 167.635L95.44 190.68H103.131H110.822V188.088V185.471L92.6192 161.322C82.6138 148.023 74.4166 137.053 74.4166 136.909C74.4166 136.765 82.6138 125.794 92.6192 112.496L110.822 88.3465V85.73V83.1375H103.131H95.44L78.1295 106.182ZM143.996 133.452L121.015 183.743V187.223V190.68L127.98 190.632L134.969 190.56L154.795 147.111C165.691 123.202 174.816 103.254 175.059 102.774L175.495 101.861L195.759 146.271L216.022 190.68H222.89H229.733V187.007V183.359L206.873 133.26L183.989 83.1375H175.471H166.953L143.996 133.452ZM241.63 190.68V136.909V83.1375H249.275H256.919V136.909V190.68H249.275H241.63Z" fill="url(#paint0_radial_1060_12070)"/>
<path fill-rule="evenodd" clip-rule="evenodd" d="M78.1295 106.182L60.7948 129.203L39.5303 129.227H18.2417V136.909V144.59H39.5303L60.7948 144.614L78.1295 167.635L95.44 190.68H103.131H110.822V188.088V185.471L92.6192 161.322C82.6138 148.023 74.4166 137.053 74.4166 136.909C74.4166 136.765 82.6138 125.794 92.6192 112.496L110.822 88.3465V85.73V83.1375H103.131H95.44L78.1295 106.182ZM143.996 133.452L121.015 183.743V187.223V190.68L127.98 190.632L134.969 190.56L154.795 147.111C165.691 123.202 174.816 103.254 175.059 102.774L175.495 101.861L195.759 146.271L216.022 190.68H222.89H229.733V187.007V183.359L206.873 133.26L183.989 83.1375H175.471H166.953L143.996 133.452ZM241.63 190.68V136.909V83.1375H249.275H256.919V136.909V190.68H249.275H241.63Z" fill="#E2E4E9"/>
<defs>
<radialGradient id="paint0_radial_1060_12070" cx="0" cy="0" r="1" gradientUnits="userSpaceOnUse" gradientTransform="translate(0.699042 72.4623) rotate(26.1223) scale(323.952 281.507)">
<stop stop-color="#E9E82F"/>
<stop offset="0.229189" stop-color="#6DEBC8"/>
<stop offset="0.48961" stop-color="#2281DD"/>
<stop offset="0.799846" stop-color="#020C1B"/>
</radialGradient>
</defs>
</svg>
