<svg width="265" height="263" viewBox="0 0 265 263" fill="none" xmlns="http://www.w3.org/2000/svg">
<path fill-rule="evenodd" clip-rule="evenodd" d="M74.1507 12.8765L42.9329 42.5116L13.2627 72.3543C7.96747 77.6804 5 84.8514 5 92.3216V228.713C5 244.44 17.8886 257.189 33.7875 257.189H231.213C247.111 257.189 260 244.44 260 228.713V33.4222C260 17.6952 247.111 4.94595 231.213 4.94595H94.0835C86.6536 4.94595 79.5114 7.78756 74.1507 12.8765ZM70.6887 9.30797L39.4188 38.9926L9.69785 68.8863C3.48287 75.1374 0 83.554 0 92.3216V228.713C0 247.171 15.1272 262.135 33.7875 262.135H231.213C249.873 262.135 265 247.171 265 228.713V33.4222C265 14.9636 249.873 0 231.213 0H94.0835C85.3631 0 76.9805 3.33517 70.6887 9.30797Z" fill="#E2E4E9"/>
<path fill-rule="evenodd" clip-rule="evenodd" d="M73.1295 101.182L55.7948 124.203L34.5303 124.227H13.2417V131.909V139.59H34.5303L55.7948 139.614L73.1295 162.635L90.44 185.68H98.1309H105.822V183.088V180.471L87.6192 156.322C77.6138 143.023 69.4166 132.053 69.4166 131.909C69.4166 131.765 77.6138 120.794 87.6192 107.496L105.822 83.3465V80.73V78.1375H98.1309H90.44L73.1295 101.182ZM138.996 128.452L116.015 178.743V182.223V185.68L122.98 185.632L129.969 185.56L149.795 142.111C160.691 118.202 169.816 98.2537 170.059 97.7736L170.495 96.8614L190.759 141.271L211.022 185.68H217.89H224.733V182.007V178.359L201.873 128.26L178.989 78.1375H170.471H161.953L138.996 128.452ZM236.63 185.68V131.909V78.1375H244.275H251.919V131.909V185.68H244.275H236.63Z" fill="url(#paint0_radial_1060_12070)"/>
<path fill-rule="evenodd" clip-rule="evenodd" d="M73.1295 101.182L55.7948 124.203L34.5303 124.227H13.2417V131.909V139.59H34.5303L55.7948 139.614L73.1295 162.635L90.44 185.68H98.1309H105.822V183.088V180.471L87.6192 156.322C77.6138 143.023 69.4166 132.053 69.4166 131.909C69.4166 131.765 77.6138 120.794 87.6192 107.496L105.822 83.3465V80.73V78.1375H98.1309H90.44L73.1295 101.182ZM138.996 128.452L116.015 178.743V182.223V185.68L122.98 185.632L129.969 185.56L149.795 142.111C160.691 118.202 169.816 98.2537 170.059 97.7736L170.495 96.8614L190.759 141.271L211.022 185.68H217.89H224.733V182.007V178.359L201.873 128.26L178.989 78.1375H170.471H161.953L138.996 128.452ZM236.63 185.68V131.909V78.1375H244.275H251.919V131.909V185.68H244.275H236.63Z" fill="#E2E4E9"/>
<defs>
<radialGradient id="paint0_radial_1060_12070" cx="0" cy="0" r="1" gradientUnits="userSpaceOnUse" gradientTransform="translate(-4.30096 67.4623) rotate(26.1223) scale(323.952 281.507)">
<stop stop-color="#E9E82F"/>
<stop offset="0.229189" stop-color="#6DEBC8"/>
<stop offset="0.48961" stop-color="#2281DD"/>
<stop offset="0.799846" stop-color="#020C1B"/>
</radialGradient>
</defs>
</svg>
