<svg width="277" height="296" viewBox="0 0 277 296" fill="none" xmlns="http://www.w3.org/2000/svg">
<path d="M261 164C261 168.418 264.582 172 269 172C273.418 172 277 168.418 277 164C277 159.582 273.418 156 269 156C264.582 156 261 159.582 261 164ZM267.5 164C267.5 234.969 209.969 292.5 139 292.5V295.5C211.625 295.5 270.5 236.625 270.5 164H267.5Z" fill="url(#paint0_radial_1060_9399)"/>
<path d="M16 132C16 127.582 12.4183 124 7.99999 124C3.58171 124 -1.48725e-05 127.582 -1.52588e-05 132C-1.5645e-05 136.418 3.58171 140 7.99998 140C12.4183 140 16 136.418 16 132ZM9.49998 132C9.49999 61.0422 67.4683 3.50001 139 3.50002L139 0.500015C65.8331 0.500009 6.49999 59.3637 6.49998 132L9.49998 132Z" fill="url(#paint1_radial_1060_9399)"/>
<defs>
<radialGradient id="paint0_radial_1060_9399" cx="0" cy="0" r="1" gradientUnits="userSpaceOnUse" gradientTransform="translate(275.667 155.667) rotate(135.981) scale(234.087 287.062)">
<stop stop-color="#7AF8DA"/>
<stop offset="0.267993" stop-color="#6DEBC8"/>
<stop offset="0.616149" stop-color="#2281DD"/>
<stop offset="0.898733" stop-color="#020C1B"/>
<stop offset="1" stop-color="#020C1B"/>
</radialGradient>
<radialGradient id="paint1_radial_1060_9399" cx="0" cy="0" r="1" gradientUnits="userSpaceOnUse" gradientTransform="translate(1.28201 140.333) rotate(-43.7998) scale(235.02 288.122)">
<stop stop-color="#7AF8DA"/>
<stop offset="0.267993" stop-color="#6DEBC8"/>
<stop offset="0.616149" stop-color="#2281DD"/>
<stop offset="0.898733" stop-color="#020C1B"/>
<stop offset="1" stop-color="#020C1B"/>
</radialGradient>
</defs>
</svg>
