<svg width="1366" height="533" viewBox="0 0 1366 533" fill="none" xmlns="http://www.w3.org/2000/svg">
<path d="M1 429.375C18.2082 517.435 37.2092 394.241 57.3617 377.015C57.3617 403.883 71.1676 387.299 72.0836 361.589C78.234 293.198 81.3093 417.638 88.8992 355.932C103.098 417.124 126.783 39.561 133.326 119.779C137.187 225.836 135.878 26.0628 139.87 140.219C150.338 281.628 145.955 287.284 156.751 382.543C159.041 325.465 162.77 215.423 167.219 338.063C172.454 402.34 176.641 202.31 184.035 313.252C186.718 298.211 185.802 291.527 188.288 313.252C190.578 338.32 192.737 286.77 194.831 327.907C197.841 389.099 204.646 257.974 207.459 346.676C216.161 346.034 214.853 405.425 220.087 416.867C229.444 363.131 221.2 493.999 236.903 360.174C240.043 397.327 242.399 369.173 245.278 348.733C247.437 360.946 247.372 369.43 249.531 350.404C253.457 334.207 251.821 400.026 256.074 375.087C260.392 376.886 261.897 387.299 264.449 406.068C290.621 477.416 317.644 176.728 327.589 249.875C328.244 215.037 332.628 192.283 335.965 232.006C337.404 279.314 345.321 209.895 350.686 208.352C367.044 294.483 367.437 95.2248 380.13 125.049C382.224 181.099 389.356 268.001 392.758 200.896C397.927 259.517 396.095 149.475 401.133 177.242C407.022 201.667 409.574 257.074 411.668 294.74C412.714 290.37 413.107 232.649 415.855 234.963C419.192 311.324 421.482 212.98 426.389 283.556C429.857 275.2 439.999 115.536 451.645 196.011C458.516 190.226 458.189 128.135 464.274 134.691C475.004 193.183 468.657 51.1308 474.742 104.095C478.537 139.19 477.163 61.4152 481.285 100.624C485.08 56.273 484.95 111.166 487.828 119.264C491.1 91.7539 487.829 35.3187 496.269 72.4708C500.587 77.0987 498.625 -0.162167 504.644 36.4757C511.187 75.8132 511.187 -26.6443 515.178 8.45094C517.599 30.8193 517.141 23.4917 519.366 8.45094C534.022 31.4621 525.909 88.9257 531.994 74.5276C535.658 184.955 533.761 17.5783 540.435 66.3002C544.36 154.488 541.612 32.4905 546.978 77.2273C550.511 -2.86181 549.202 78.8985 551.165 108.594C556.596 115.279 556.53 -10.7036 563.793 38.7897C568.177 188.169 575.374 -18.0312 578.515 94.1964C581.459 182.127 583.488 32.6191 586.956 145.618C591.143 140.09 589.573 89.1828 595.331 130.191C597.882 120.678 602.332 106.666 604.426 114.636C606.846 83.7835 607.762 119.779 610.969 98.6958C625.952 128.263 606.258 184.57 632.037 140.861C634.524 184.184 640.805 282.271 646.759 220.051C649.18 182.899 649.965 228.407 655.134 207.195C658.209 194.34 660.107 235.477 663.575 241.905C668.482 409.025 690.336 303.354 707.74 219.151C710.292 266.973 718.405 296.283 720.303 228.407C735.156 384.471 740.455 261.316 745.559 307.853C746.802 301.682 746.475 256.431 749.747 258.488C753.541 254.503 760.542 358.375 764.468 315.309C767.936 259.517 771.011 376.372 783.378 280.985C794.697 259.388 803.857 213.88 821.262 179.942C828.917 283.428 831.469 164.001 835.984 257.074C842.527 222.365 839.255 260.031 846.518 244.862C851.883 266.202 850.706 219.151 859.081 259.003C861.894 268.773 863.792 264.787 865.624 253.475C867.39 286.899 867.587 279.957 872.167 264.016C876.42 317.623 877.99 257.46 882.701 285.613C884.468 228.535 894.021 338.449 895.329 364.417C901.48 323.794 896.572 465.846 907.957 381.772C910.64 412.239 912.21 373.158 914.5 414.424C916.66 388.713 919.8 421.752 922.941 397.969C927.848 397.969 935.503 432.936 935.503 432.936L948.132 435.636L966.5 501.834L983.5 468.802L1000.74 527.68L1028.02 532.18C1028.02 532.18 1042.81 449.648 1044.9 468.802C1064.53 446.177 1063.81 443.092 1063.81 443.092L1095.35 411.21L1122.7 446.948L1145.8 459.804L1160.52 445.277L1206 501.834L1257.22 461.346C1257.22 461.346 1266.12 470.731 1269.85 464.817C1270.57 445.277 1276.4 459.161 1276.4 459.161L1284.77 499.141L1321 459.161L1350 477.689L1381 435.636L1412 461.346L1480.34 462.375L1489 459.161" stroke="#CED5DD" stroke-dasharray="4 4"/>
</svg>
