<svg width="1344" height="645" viewBox="0 0 1344 645" fill="none" xmlns="http://www.w3.org/2000/svg">
<path d="M2 644C9.58095 614.284 8.06476 638.756 26.727 518.985C37.3881 467.511 60.434 539.831 65.7326 413.722C79.5219 314.764 89.6723 368.297 92.3535 189.684C95.4817 183.894 101.866 185.952 106.717 177.717C110.484 187.239 109.335 131.648 110.867 152.881C112.399 174.114 111.505 376.661 114.953 262.39C120.315 231.249 128.742 215.55 129.316 162.017C132.955 190.842 131.168 168.838 135.7 153.653C139.084 135.895 138.062 169.996 139.85 171.283C140.488 169.224 141.19 139.498 141.893 136.924C148.979 215.164 145.532 0.391284 154.214 83.2633C157.916 -158.79 156.64 211.946 158.299 264.449C159.002 305.885 159.64 241.801 160.342 245.661C161.874 258.53 162.385 302.539 164.428 317.724C166.343 372.8 169.407 233.823 172.663 222.756C180.068 303.698 176.302 248.492 187.027 242.83C190.666 218.509 189.58 270.369 193.411 268.567C195.39 256.857 196.092 262.262 197.56 274.358C200.625 280.535 202.412 269.597 203.944 295.076C206.498 327.761 208.285 294.046 212.18 292.245C216.521 283.237 220.223 308.716 224.437 306.143C226.671 323.386 225.522 368.683 230.821 335.868C233.821 333.037 236.502 360.447 241.035 344.876C271.103 300.738 263.634 319.14 286.169 372.543C287.701 364.05 287.701 346.806 290.319 356.458C300.899 323.174 314.044 293.504 329.26 268.567C332.389 249.393 338.645 214.263 343.624 234.08C351.604 207.057 358.435 210.917 366.223 215.035C374.012 258.144 381.864 122.898 386.716 197.534C395.206 215.55 401.909 212.204 411.358 212.847C414.103 227.002 414.613 257.114 417.741 226.359C423.104 232.15 430.509 271.141 436.191 242.444C443.979 236.139 450.363 197.92 459.62 213.491C462.046 217.995 462.429 202.81 463.706 196.633C475.388 234.209 488.667 124.185 504.754 126.758C509.478 142.458 513.181 101.922 517.075 128.302C520.586 129.203 524.48 100.764 527.353 118.78C530.864 153.01 535.142 125.729 539.674 143.23C541.653 163.948 547.845 122.383 547.845 122.383C551.037 151.208 562.209 119.423 562.209 119.423C562.209 119.423 562.209 145.16 572.487 110.415C581.872 130.233 605.301 146.318 605.301 146.318L650.435 176.816L697.612 168.066L757.11 177.073L812.522 138.468L869.5 190.052L898 244.281L937.647 228.547L986.867 247.72L1020.5 207.534L1053.5 223.965L1075 207.534L1108.16 221.984L1153 194.467L1167.66 212.204H1227.16L1260 187.766L1294.83 226.23L1328 215.019L1389.18 215.678L1412 186.061L1432.27 184.151L1448.5 173.547C1448.5 173.547 1457.61 177.506 1461 188.397" stroke="url(#paint0_linear_1315_10860)" stroke-width="4"/>
<defs>
<linearGradient id="paint0_linear_1315_10860" x1="674.5" y1="84.218" x2="741.686" y2="600.981" gradientUnits="userSpaceOnUse">
<stop stop-color="#7AF8DA"/>
<stop offset="0.267993" stop-color="#6DEBC8"/>
<stop offset="0.616149" stop-color="#2281DD"/>
<stop offset="0.898733" stop-color="#020C1B"/>
</linearGradient>
</defs>
</svg>
